<?xml version="1.0" encoding="UTF-8"?>
<svg width="1525px" height="393px" viewBox="0 0 1525 393" version="1.1" xmlns="http://www.w3.org/2000/svg" xmlns:xlink="http://www.w3.org/1999/xlink">
    <defs></defs>
    <g id="Page-1" stroke="none" stroke-width="1" fill="none" fill-rule="evenodd">
        <path d="M0,0 L130.714286,2.47674897e-12 L348.571429,221.646531 L348.571429,2.47674897e-12 L827.857143,2.47674897e-12 L920.446429,100.968532 L1013.06205,4.95349793e-12 L1525,0 L1525,87.1428571 L1394.28571,87.1428571 L1394.28571,392.142857 L1263.57143,392.142857 L1263.57143,87.1428571 L1107.51443,87.1428571 L1007.58929,196.071429 L1187.32143,392.142857 L1013.06205,392.142857 L920.446429,290.964087 L827.857143,392.142857 L348.571429,392.142857 L130.714286,177.116194 L130.714286,392.142857 L0,392.142857 L0,0 Z M479.285714,87.1428571 L479.285714,152.5 L610,152.5 L610,239.642857 L479.285714,239.642857 L479.285714,305 L735.277094,305 L833.303571,196.071429 L735.277094,87.1428571 L479.285714,87.1428571 Z" id="path-1-copy" fill="white"></path>
    </g>
</svg>